<?xml version="1.0" encoding="UTF-8"?>
<!DOCTYPE svg PUBLIC "-//W3C//DTD SVG 1.1//EN" "http://www.w3.org/Graphics/SVG/1.1/DTD/svg11.dtd">
<svg xmlns="http://www.w3.org/2000/svg" version="1.1" width="256px" height="256px" style="shape-rendering:geometricPrecision; text-rendering:geometricPrecision; image-rendering:optimizeQuality; fill-rule:evenodd; clip-rule:evenodd" xmlns:xlink="http://www.w3.org/1999/xlink">
<g><path style="opacity:0.883" fill="#000000" d="M 32.5,20.5 C 76.8805,20.0209 121.214,20.5209 165.5,22C 173.493,25.3262 178.659,31.1595 181,39.5C 181.5,50.8284 181.667,62.1618 181.5,73.5C 194.837,73.3334 208.171,73.5001 221.5,74C 233,76.1667 239.833,83 242,94.5C 242.667,137.5 242.667,180.5 242,223.5C 237.508,234 230.008,236.834 219.5,232C 211.833,223.667 204.167,215.333 196.5,207C 160.44,206.981 124.44,206.314 88.5,205C 82,202.5 77.5,198 75,191.5C 73.58,178.894 73.08,166.228 73.5,153.5C 68.4889,153.334 63.4889,153.501 58.5,154C 50.8333,162.333 43.1667,170.667 35.5,179C 24.9916,183.834 17.4916,181 13,170.5C 12.3333,127.5 12.3333,84.5 13,41.5C 15.2332,30.4367 21.7332,23.4367 32.5,20.5 Z M 34.5,29.5 C 76.5013,29.3333 118.501,29.5 160.5,30C 166.333,31.8333 170.167,35.6667 172,41.5C 172.667,71.8333 172.667,102.167 172,132.5C 170.57,138.261 167.07,142.095 161.5,144C 126.167,144.333 90.8333,144.667 55.5,145C 46.8577,153.31 38.5244,161.977 30.5,171C 26.7929,173.209 23.9596,172.376 22,168.5C 21.3333,126.5 21.3333,84.5 22,42.5C 23.6823,35.6529 27.849,31.3196 34.5,29.5 Z M 181.5,82.5 C 194.504,82.3334 207.504,82.5001 220.5,83C 226.159,83.9956 229.993,87.1622 232,92.5C 233.151,114.439 233.651,136.439 233.5,158.5C 233.333,179.5 233.167,200.5 233,221.5C 231.04,225.376 228.207,226.209 224.5,224C 216.476,214.977 208.142,206.31 199.5,198C 163.107,197.981 126.773,197.314 90.5,196C 87.2379,193.408 84.7379,190.241 83,186.5C 82.5002,175.505 82.3335,164.505 82.5,153.5C 109.502,153.667 136.502,153.5 163.5,153C 173.112,150.389 178.945,144.222 181,134.5C 181.5,117.17 181.667,99.8365 181.5,82.5 Z"/></g>
<g><path style="opacity:0.877" fill="#000000" d="M 62.5,70.5 C 85.5024,70.3334 108.502,70.5 131.5,71C 135.486,72.9431 136.153,75.6098 133.5,79C 109.167,79.6667 84.8333,79.6667 60.5,79C 58.7763,75.4643 59.443,72.631 62.5,70.5 Z"/></g>
<g><path style="opacity:0.872" fill="#000000" d="M 60.5,104.5 C 77.5033,104.333 94.5033,104.5 111.5,105C 114.462,108.488 113.795,111.155 109.5,113C 93.8333,113.667 78.1667,113.667 62.5,113C 59.3353,110.886 58.6687,108.053 60.5,104.5 Z"/></g>
</svg>
