<?xml version="1.0" encoding="UTF-8"?>
<!DOCTYPE svg PUBLIC "-//W3C//DTD SVG 1.1//EN" "http://www.w3.org/Graphics/SVG/1.1/DTD/svg11.dtd">
<svg xmlns="http://www.w3.org/2000/svg" version="1.1" width="512px" height="512px" style="shape-rendering:geometricPrecision; text-rendering:geometricPrecision; image-rendering:optimizeQuality; fill-rule:evenodd; clip-rule:evenodd" xmlns:xlink="http://www.w3.org/1999/xlink">
<g><path style="opacity:0.93" fill="#000000" d="M 248.5,97.5 C 283.293,96.1906 309.793,110.191 328,139.5C 346.058,177.307 340.892,211.473 312.5,242C 285.221,264.786 254.888,269.786 221.5,257C 182.279,236.075 166.779,203.575 175,159.5C 186.468,123.207 210.968,102.541 248.5,97.5 Z M 249.5,114.5 C 288.739,114.91 312.572,134.244 321,172.5C 323.023,204.79 309.523,227.957 280.5,242C 248.487,252.549 221.987,244.716 201,218.5C 181.803,184.485 186.636,154.318 215.5,128C 225.871,120.826 237.205,116.326 249.5,114.5 Z"/></g>
<g><path style="opacity:0.938" fill="#000000" d="M 218.5,279.5 C 245.533,279.063 272.533,279.563 299.5,281C 353.029,292.863 386.529,325.363 400,378.5C 402.102,390.071 402.935,401.737 402.5,413.5C 304.5,413.5 206.5,413.5 108.5,413.5C 107.006,363.316 127.006,324.482 168.5,297C 184.212,288.042 200.879,282.209 218.5,279.5 Z M 233.5,295.5 C 252.856,295.213 272.189,295.713 291.5,297C 336.371,304.869 366.205,330.369 381,373.5C 383.08,381.067 384.58,388.733 385.5,396.5C 298.833,396.5 212.167,396.5 125.5,396.5C 132.854,343.982 162.187,311.148 213.5,298C 220.308,297.117 226.975,296.283 233.5,295.5 Z"/></g>
</svg>
