<?xml version="1.0" encoding="UTF-8"?>
<!DOCTYPE svg PUBLIC "-//W3C//DTD SVG 1.1//EN" "http://www.w3.org/Graphics/SVG/1.1/DTD/svg11.dtd">
<svg xmlns="http://www.w3.org/2000/svg" version="1.1" width="512px" height="512px" style="shape-rendering:geometricPrecision; text-rendering:geometricPrecision; image-rendering:optimizeQuality; fill-rule:evenodd; clip-rule:evenodd" xmlns:xlink="http://www.w3.org/1999/xlink">
<g><path style="opacity:0.929" fill="#000000" d="M 222.5,119.5 C 276.496,116.748 315.996,139.081 341,186.5C 359.312,231.683 353.479,273.349 323.5,311.5C 345.819,334.32 368.319,356.986 391,379.5C 392.32,389.512 388.154,393.012 378.5,390C 356.32,367.653 333.986,345.486 311.5,323.5C 277.114,351.009 238.781,358.176 196.5,345C 152.464,327.62 126.964,295.454 120,248.5C 116.63,193.382 139.464,153.548 188.5,129C 199.611,124.559 210.944,121.393 222.5,119.5 Z M 227.5,135.5 C 272.225,134.936 305.059,154.269 326,193.5C 344.777,243.491 333.277,284.991 291.5,318C 252.704,341.793 214.37,341.126 176.5,316C 139.2,285.315 127.7,246.815 142,200.5C 158.313,162.674 186.813,141.007 227.5,135.5 Z"/></g>
</svg>
