<?xml version="1.0" standalone="no"?>
<!DOCTYPE svg PUBLIC "-//W3C//DTD SVG 20010904//EN"
 "http://www.w3.org/TR/2001/REC-SVG-20010904/DTD/svg10.dtd">
<svg version="1.0" xmlns="http://www.w3.org/2000/svg"
     width="32.000000pt" height="32.000000pt" viewBox="0 0 32.000000 32.000000"
 preserveAspectRatio="xMidYMid meet">

<g transform="translate(0.000000,32.000000) scale(0.100000,-0.100000)"
fill="#000000" stroke="none">
<path d="M80 308 c0 -12 -8 -18 -23 -18 -46 0 -57 -27 -57 -143 0 -134 9 -148
98 -146 l57 2 -58 6 c-76 8 -87 23 -87 118 l0 73 149 0 c134 0 150 -2 154 -17
3 -10 5 3 6 28 1 51 -19 79 -57 79 -14 0 -22 6 -22 18 -1 16 -1 16 -11 0 -14
-26 -124 -26 -138 0 -10 16 -10 16 -11 0z m216 -53 c8 -13 13 -29 9 -35 -4 -6
-60 -10 -146 -10 -116 0 -141 3 -146 15 -3 9 3 25 12 35 16 18 32 20 136 20
115 0 119 -1 135 -25z"/>
<path d="M175 145 c-48 -47 -25 -125 42 -141 53 -14 113 46 99 99 -16 67 -94
90 -141 42z m103 -2 c12 -10 24 -30 28 -45 5 -22 0 -34 -25 -59 -25 -25 -37
-30 -59 -25 -60 15 -80 79 -37 121 28 29 65 32 93 8z"/>
<path d="M230 101 c0 -11 4 -22 9 -25 4 -3 6 6 3 19 -5 30 -12 33 -12 6z"/>
</g>
</svg>
