<?xml version="1.0" standalone="no"?>
<!DOCTYPE svg PUBLIC "-//W3C//DTD SVG 20010904//EN"
 "http://www.w3.org/TR/2001/REC-SVG-20010904/DTD/svg10.dtd">
<svg version="1.0" xmlns="http://www.w3.org/2000/svg"
 width="512.000000pt" height="512.000000pt" viewBox="0 0 512.000000 512.000000"
 preserveAspectRatio="xMidYMid meet">

<g transform="translate(0.000000,512.000000) scale(0.100000,-0.100000)"
fill="#000000" stroke="none">
<path d="M2385 4875 c-92 -20 -203 -66 -280 -117 -73 -48 -1860 -1541 -1953
-1631 -68 -66 -127 -184 -144 -285 -45 -270 145 -541 416 -592 l66 -12 0 -772
c0 -850 0 -841 63 -960 42 -81 137 -176 215 -215 121 -61 118 -61 774 -61
l597 0 3 697 3 698 32 68 c80 169 261 268 441 240 170 -26 304 -145 346 -308
14 -51 16 -156 16 -727 l0 -668 603 0 c654 0 652 0 766 57 84 42 181 143 224
233 19 41 40 102 46 134 7 39 11 321 11 821 l0 761 63 12 c134 25 284 129 350
243 122 209 92 460 -75 633 -83 86 -1862 1575 -1953 1634 -81 53 -185 96 -285
117 -86 18 -263 18 -345 0z m375 -213 c36 -12 93 -38 127 -59 85 -51 1939
-1608 1975 -1657 88 -121 69 -305 -42 -416 -68 -68 -114 -84 -262 -88 l-128
-4 -2 -882 -3 -881 -33 -67 c-39 -79 -93 -129 -169 -158 -51 -19 -78 -20 -548
-20 l-494 0 -4 607 c-3 662 -1 630 -62 756 -108 219 -350 360 -593 343 -101
-6 -226 -47 -305 -100 -79 -53 -168 -153 -210 -238 -68 -134 -67 -128 -67
-780 l0 -589 -512 3 -513 3 -43 23 c-66 35 -119 88 -149 150 l-28 57 -3 887
-2 886 -128 4 c-148 4 -194 20 -262 88 -108 108 -129 279 -50 403 20 32 284
259 947 814 505 423 943 789 973 813 63 49 156 94 238 115 84 21 268 14 352
-13z"/>
</g>
</svg>
