<?xml version="1.0" standalone="no"?>
<!DOCTYPE svg PUBLIC "-//W3C//DTD SVG 20010904//EN"
 "http://www.w3.org/TR/2001/REC-SVG-20010904/DTD/svg10.dtd">
<svg version="1.0" xmlns="http://www.w3.org/2000/svg"
 width="512.000000pt" height="512.000000pt" viewBox="0 0 512.000000 512.000000"
 preserveAspectRatio="xMidYMid meet">

<g transform="translate(0.000000,512.000000) scale(0.100000,-0.100000)"
fill="#000000" stroke="none">
<path d="M789 5104 c-373 -67 -677 -359 -766 -734 -17 -70 -18 -177 -18 -1665
l0 -1590 28 -57 c59 -119 180 -200 305 -202 37 0 89 6 117 14 34 9 174 97 445
277 l395 262 26 -82 c48 -153 115 -269 218 -380 120 -127 288 -228 466 -278
79 -23 88 -23 895 -28 l815 -6 436 -293 c240 -160 458 -302 485 -314 39 -18
67 -23 134 -23 76 0 93 4 152 33 77 38 130 92 167 171 l26 56 0 1590 0 1590
-23 90 c-76 301 -299 555 -585 665 -133 52 -193 61 -442 67 l-230 5 -16 82
c-36 181 -123 341 -264 482 -145 146 -312 234 -512 269 -122 21 -2136 21
-2254 -1z m2268 -217 c275 -74 480 -281 551 -555 16 -61 17 -149 17 -1027 l0
-960 -23 -79 c-75 -258 -252 -442 -507 -527 l-70 -24 -836 -5 -836 -5 -477
-317 c-464 -310 -478 -318 -526 -318 -41 0 -55 5 -85 31 -19 17 -40 47 -45 67
-8 26 -10 506 -8 1572 3 1408 5 1540 21 1597 63 234 226 423 440 512 63 25
115 39 217 55 14 2 493 3 1065 2 942 -2 1046 -3 1102 -19z m1268 -852 c147
-31 314 -135 409 -254 95 -118 146 -234 165 -375 8 -52 11 -562 11 -1574 0
-1462 -1 -1498 -20 -1540 -25 -56 -92 -89 -149 -75 -20 5 -245 149 -503 321
l-468 312 -768 0 c-472 0 -799 4 -851 10 -166 21 -317 95 -437 215 -103 103
-180 246 -207 382 l-6 32 757 3 757 4 99 27 c366 99 632 380 705 744 20 97 21
133 21 942 l0 841 208 0 c144 0 228 -5 277 -15z"/>
</g>
</svg>
