<?xml version="1.0" standalone="no"?>
<!DOCTYPE svg PUBLIC "-//W3C//DTD SVG 20010904//EN"
 "http://www.w3.org/TR/2001/REC-SVG-20010904/DTD/svg10.dtd">
<svg version="1.0" xmlns="http://www.w3.org/2000/svg"
 width="512.000000pt" height="512.000000pt" viewBox="0 0 512.000000 512.000000"
 preserveAspectRatio="xMidYMid meet">

<g transform="translate(0.000000,512.000000) scale(0.100000,-0.100000)"
fill="#000000" stroke="none">
<path d="M2005 4894 c-16 -2 -73 -9 -125 -15 -336 -38 -691 -166 -925 -334
-186 -133 -354 -315 -466 -507 -200 -340 -301 -839 -270 -1332 46 -707 292
-1201 750 -1508 445 -297 1123 -408 1796 -293 324 55 599 167 818 332 l82 62
125 -122 c69 -67 314 -310 545 -539 416 -414 421 -418 461 -418 74 0 128 71
104 136 -6 17 -240 259 -545 564 l-534 535 64 84 c165 218 284 513 340 846 58
345 59 638 4 955 -160 925 -742 1453 -1708 1550 -94 9 -445 12 -516 4z m472
-215 c794 -67 1293 -442 1488 -1119 151 -526 111 -1184 -101 -1639 -159 -341
-450 -600 -815 -724 -465 -159 -1116 -163 -1584 -10 -345 112 -626 338 -795
638 -262 467 -316 1241 -126 1818 165 503 483 808 997 956 266 77 617 107 936
80z"/>
</g>
</svg>
