<?xml version="1.0" encoding="UTF-8"?>
<!DOCTYPE svg PUBLIC "-//W3C//DTD SVG 1.1//EN" "http://www.w3.org/Graphics/SVG/1.1/DTD/svg11.dtd">
<svg xmlns="http://www.w3.org/2000/svg" version="1.1" width="512px" height="512px" style="shape-rendering:geometricPrecision; text-rendering:geometricPrecision; image-rendering:optimizeQuality; fill-rule:evenodd; clip-rule:evenodd" xmlns:xlink="http://www.w3.org/1999/xlink">
<g><path style="opacity:0.953" fill="#000000" d="M 239.5,19.5 C 294.688,15.3416 336.522,36.675 365,83.5C 383.194,121.038 384.194,159.038 368,197.5C 347.684,236.926 315.517,260.093 271.5,267C 225.534,271.578 187.701,256.411 158,221.5C 128.249,180.444 123.249,136.444 143,89.5C 163.538,50.1468 195.704,26.8134 239.5,19.5 Z M 254.5,43.5 C 297.454,45.6457 328.287,65.979 347,104.5C 363.396,151.291 352.896,190.791 315.5,223C 287.645,242.587 257.312,247.587 224.5,238C 196.364,228.198 176.197,209.698 164,182.5C 147.414,135.671 157.914,96.1708 195.5,64C 213.215,51.263 232.881,44.4296 254.5,43.5 Z"/></g>
<g><path style="opacity:0.974" fill="#000000" d="M 203.5,291.5 C 238.168,291.333 272.835,291.5 307.5,292C 385.64,303.555 438.64,346.222 466.5,420C 474.036,443.255 477.036,467.088 475.5,491.5C 328.833,491.5 182.167,491.5 35.5,491.5C 33.4186,413.183 65.7519,354.017 132.5,314C 154.91,302.139 178.576,294.639 203.5,291.5 Z M 222.5,315.5 C 244.503,315.333 266.503,315.5 288.5,316C 358.141,319.677 407.975,352.844 438,415.5C 444.998,432.157 449.164,449.49 450.5,467.5C 320.5,467.5 190.5,467.5 60.5,467.5C 67.6508,402.647 100.651,356.48 159.5,329C 179.832,320.702 200.832,316.202 222.5,315.5 Z"/></g>
</svg>
